<?xml version="1.0" standalone="no"?>
<!DOCTYPE svg PUBLIC "-//W3C//DTD SVG 1.1//EN" "http://www.w3.org/Graphics/SVG/1.1/DTD/svg11.dtd" >
<!--
2013-9-30: Created.
-->
<svg>
<metadata>
Created by iconfont
</metadata>
<defs>

<font id="iconfont" horiz-adv-x="1024" >
  <font-face
    font-family="iconfont"
    font-weight="500"
    font-stretch="normal"
    units-per-em="1024"
    ascent="896"
    descent="-128"
  />
    <missing-glyph />
    
    <glyph glyph-name="yijiuhuanxin" unicode="&#58939;" d="M3366.961839 172.404786l110.613632 0 0-378.821703-110.613632 0 0 378.821703ZM3714.349399 172.404786l110.613632 0 0-378.821703-110.613632 0 0 378.821703ZM3782.686139 615.846974 3672.072507 615.846974 3672.072507 517.731057 3519.852363 517.731057 3519.852363 617.217414 3409.238731 617.217414 3409.238731 517.731057 3333.984288 517.731057 3333.984288 407.117424 3540.655619 407.117424 3540.655619 336.480924 3333.984288 336.480924 3333.984288 225.867291 3540.655619 225.867291 3540.655619-209.684888 3651.269251-209.684888 3651.269251 225.867291 3857.940582 225.867291 3857.940582 336.480924 3651.269251 336.480924 3651.269251 407.117424 3857.940582 407.117424 3857.940582 517.731057 3782.686139 517.731057ZM3651.269251 809.385008 3540.655619 809.385008 3540.655619 759.398242 3333.984288 759.398242 3333.984288 648.784609 3857.940582 648.784609 3857.940582 759.398242 3651.269251 759.398242ZM4075.187533 697.702863l60.360761 0 0 0.14124 189.785957 0L4325.33425 809.385008l-189.785957 0-48.809765 0-11.549973 0c-91.207427 0-165.828335-74.622956-165.828335-165.828335L3909.360221-36.884607l0.04401 0 0-9.579773c0-18.770625-10.165204-35.639623-25.153046-45.390318l0-117.83019c77.503028 13.819028 136.835192 81.903993 136.835192 163.220508l0 12.224446-0.045033 0L4021.041343 406.190151l146.91033 0 0-615.875039 110.613632 0L4278.565305 406.190151l46.768945 0L4325.33425 517.731057l-304.292907 0L4021.041343 643.556673C4021.04032 672.908035 4045.838218 697.702863 4075.187533 697.702863zM1099.11832 812l111.539882 0 0-1020.492534-111.539882 0 0 1020.492534ZM1366.642706 713.454221l0-12.995126L1366.642706 357.523674l0-111.539882L1366.642706-96.952652l0-63.770996 0-47.769909 476.927385 0 55.111331 0 5.248406 0c91.207427 0 165.828335 74.622956 165.828335 165.828335L2069.758163 245.983792 2069.758163 357.523674 2069.758163 700.459095 2069.758163 718.403771 2069.758163 812 1366.642706 812 1366.642706 713.454221zM1478.183611 700.459095l479.894454 0L1958.078064 357.523674l-479.894454 0L1478.183611 700.459095zM1478.183611 245.983792l479.894454 0 0-288.647991c0-29.351362-24.797899-54.14619-54.14619-54.14619l-60.360761 0 0-0.142264-365.387503 0L1478.183611 245.983792zM112.705626-42.665222 112.705626 811.998977 1.02348 811.998977l0-854.664199c0-91.20538 74.620909-165.828335 165.828335-165.828335l143.755964 0 0 111.682145L166.851815-96.811412C137.502501-96.811412 112.705626-72.016584 112.705626-42.665222zM719.235268 474.537127C744.929736 631.928916 756.764236 766.203361 760.361768 812L647.907919 812c-5.224866-62.921508-22.005845-240.260923-58.073283-424.520088-25.925774-132.443439-98.708512-445.994747-214.351525-496.926185l45.169246-102.553727c100.930487 44.448716 180.750675 181.149832 242.435819 415.965841 2.590428-8.647383 5.282181-17.368457 8.09368-26.149916 66.162869-206.645744 159.596365-337.800621 277.704942-389.815926l45.169246 102.553727C815.465935-30.789783 735.213839 338.204464 719.235268 474.537127zM324.282496 675.158667 225.177898 617.93999 355.818988 192.82219 454.923587 250.040867ZM2504.848753 427.892023l-65.548781-38.575987L2439.299972 571.302051l103.177026 0L2542.476998 682.842956l-103.177026 0L2439.299972 811.833173l-111.539882 0 0-128.990217-134.897744 0 0-111.539882 134.897744 0 0-247.62998-160.364999-94.378168 53.812535-93.20526 106.553487 62.708624 0-0.725647-0.356171 0 0-240.797227c0-29.351362-24.796875-54.14619-54.14619-54.14619l-38.592363 0 0-111.682145 38.592363 0c91.207427 0 165.828335 74.622956 165.828335 165.828335l0 10.145758 0.214931 0L2439.302019 264.441232l119.361316 70.246555L2504.848753 427.892023zM3183.329045 386.969196c0 62.455824-34.999948 117.122966-86.34692 145.388415l26.377128 61.604289 0.982541 3.486997c18.182123 64.343122-0.946719 102.996894-20.197356 124.094912-40.440768 44.318734-105.287442 39.610726-128.071132 36.306932l-204.210885 0c4.307828 16.783026 8.260508 34.7799 11.782303 54.148237l-114.146685 0c-20.202473-95.405742-54.318134-155.107381-91.451015-157.995642l8.69344-111.726155c45.304345 3.525889 99.524226 27.097658 142.330256 103.511704l256.658098 0 5.074414 0.946719c7.243168 1.343829 21.490011 1.369416 28.825293-0.681638-0.005117-2.81457-0.41758-7.624927-2.275196-14.959185l-33.52409-78.296226L2957.140972 552.798554l-138.135011 0-55.111331 0-5.248406 0c-91.207427 0-165.828335-74.622956-165.828335-165.828335l0-216.699389-40.706873 0 0-111.540905 255.507706 0c-4.034558-9.354608-8.957498-19.143171-15.0165-29.069904-44.065935-72.184003-124.144039-117.008336-237.915107-133.483294l59.548118-103.140181c93.294302 20.203497 200.138458 66.068709 267.260328 167.630684 68.999956-104.406226 179.978971-149.940854 275.065387-169.258017l59.7958 103.570042c-167.371743 21.961835-234.26333 102.852583-261.008911 163.751694l263.731368 0L3219.079204 170.269807l-35.750159 0L3183.329045 386.969196zM2825.469238 170.269807l-120.970227 0L2704.499011 386.969196c0 29.351362 24.796875 54.14619 54.14619 54.14619l60.360761 0 0 0.14124 6.463277 0L2825.469238 170.269807zM3071.646899 170.269807 2937.531094 170.269807 2937.531094 441.257649l19.608855 0 0-0.14124 60.360761 0c29.349315 0 54.14619-24.795852 54.14619-54.14619L3071.646899 170.269807z"  horiz-adv-x="4326" />

    
    <glyph glyph-name="huafeichongzhi" unicode="&#58982;" d="M845.102426 800.303027c0 42.17986-42.149142 95.65499-97.026069 95.65499l-470.661832 0c-64.921945 0-98.958276-60.096036-98.958276-96.057406l0-833.888049c0-46.688343 49.603549-94.012563 95.405145-94.012563l475.397633 0c89.927999 0 95.875141 97.017877 95.875141 97.017877S846.139694 614.355509 845.102426 800.303027L845.102426 800.303027 845.102426 800.303027zM512.002048-90.068537c-23.021625 0-41.70372 19.08963-41.70372 42.680575 0 23.542819 18.681071 42.664192 41.70372 42.664192 23.029817 0 41.710888-19.121373 41.710888-42.664192C553.712936-70.978907 535.031865-90.068537 512.002048-90.068537L512.002048-90.068537 512.002048-90.068537zM774.620394 17.43466 249.376534 17.43466 249.376534 786.825705l525.251027 0L774.620394 17.43466 774.620394 17.43466 774.620394 17.43466zM774.620394 17.43466M691.578506 584.759056l-35.899932 35.476014L515.411825 471.483814 368.326546 627.453967l-35.9071-35.467822 121.638923-128.986839L351.001194 462.999306l0-37.271011 132.865588 0 0-72.375328-132.865588-0.159737 0-36.104724 132.865588 0 0-140.804326 56.270533 0 0 140.804326 132.85842-0.021503-0.046078 36.126227L540.137314 353.19323l0 72.527898 132.812342 0 0 37.278178-96.170041 0L691.578506 584.759056 691.578506 584.759056zM691.578506 584.759056"  horiz-adv-x="1024" />

    
    <glyph glyph-name="yijiuhuanxin1" unicode="&#58895;" d="M531.072-110.016c-250.048 0-453.376 203.456-453.376 453.44H13.376l96.192 128.448 85.184-128.448h-56.64a393.472 393.472 0 0 1 392.96-392.96c174.336 0 321.664 100.352 372.288 267.072 0 0 22.656 39.168 44.608 22.464 22.336-17.024 17.088-41.984 17.088-41.984-58.432-192.32-232.896-308.032-433.984-308.032zM640.448 661.312H376l-48.192-80.448v-433.472l75.584-67.072h210.432l76.8 67.072V590.592l-50.176 70.72z m-93.76-513.92H478.976v19.968h67.712v-19.968z m67.136 95.488H403.392V475.072h210.432v-232.192z m0 327.744H403.392v19.968h210.432v-19.968zM523.584 838.656a453.952 453.952 0 0 0 453.44-453.44h64.256l-96.256-128.512-85.12 128.512h56.768a393.472 393.472 0 0 1-393.088 392.96c-174.336 0-320.96-98.24-371.648-264.896 0 0-11.968-27.328-41.92-15.36s-13.632 39.936-13.632 39.936c58.496 192.256 226.048 300.8 427.2 300.8z"  horiz-adv-x="1041" />

    
    <glyph glyph-name="mifenqia" unicode="&#58888;" d="M837.824-120H170.048s-34.24 24.768-56.128 60.736c-11.648 26.56-13.888 54.272-13.888 54.272V811.712l34.816 41.216 26.304 31.04h512.064l250.752-250.752V-28.799999999999955s0.192-27.264-20.032-63.232c-32-31.488-66.112-27.968-66.112-27.968z m-631.872 64h604.224l49.792 52.736V606.72l-213.248 213.248H190.848l-26.816-31.68v-775.296l41.92-68.992zM252.032 739.968h64v-216h-64zM364.736 739.968h64v-216h-64zM480 739.968h64v-216h-64zM256 299.96799999999996h164.032V416H284.032L256 384zM791.232 132.41600000000005l-175.552-0.832 0.64-116.032 136 0.768 27.776 32.128zM615.68 416v-116.032h180.352V382.01599999999996L752 416zM428.736 17.408000000000015l-1.856 116.032-180.288-2.88 1.344-81.92 44.48-33.344zM254.784 277.76h166.4v-107.52h-166.4zM456 416h128v-400.448h-128zM615.68 280h180.288v-112H615.68z"  horiz-adv-x="1024" />

    
    <glyph glyph-name="huidaodingbu" unicode="&#58977;" d="M1017.092813 229.376l-486.4 505.344a26.112 26.112 0 0 1-13.312 7.168h-2.048c-1.024 0-2.048 0.512-3.072 0.512h-1.024c-6.656 0-13.312-2.56-17.408-7.68l-486.4-505.344c-10.24-10.24-9.728-26.624 0.512-36.352s26.624-9.728 36.352 0.512L486.660813 653.312V-102.4c0-14.336 11.264-25.6 25.6-25.6s25.6 11.264 25.6 25.6V653.312l442.368-459.776c5.12-5.12 11.776-7.68 18.432-7.68 6.144 0 12.8 2.56 17.92 7.168 10.24 9.728 10.24 26.112 0.512 36.352zM102.660813 844.8h819.2c14.336 0 25.6 11.264 25.6 25.6s-11.264 25.6-25.6 25.6H102.660813c-14.336 0-25.6-11.264-25.6-25.6s11.264-25.6 25.6-25.6z"  horiz-adv-x="1024" />

    
    <glyph glyph-name="Fma" unicode="&#58890;" d="M507.0315905 805.23644435c-231.64242622 0-419.3973503-187.75492176-419.39735029-419.31375279 0-231.64242622 187.75492176-419.48094545 419.39735029-419.48094546s419.3973503 187.83851695 419.39735028 419.48094546c0 231.55883101-187.75492176 419.31375508-419.39735028 419.31375279z m0-762.72302448c-189.67761333 0-343.40927168 153.73165837-343.40927173 343.40927169 0 189.59401812 153.73165837 343.32567653 343.40927173 343.32567418 189.67761333 0 343.40927168-153.73165837 343.40927167-343.32567418 0-189.67761333-153.73165837-343.40927168-343.40927167-343.40927169zM725.6336797 390.2489112v-64.01092386H403.97165625v-205.82412739h-64.01092391v464.34075427h64.01092391v-0.76090196h314.34784689v-64.01092388h-314.34784689v-129.73387718z"  horiz-adv-x="1024" />

    
    <glyph glyph-name="miaosha" unicode="&#58891;" d="M146.421115 690.517077c6.245361 0 12.61563 2.24833 17.487012 6.994805l163.628472 154.385336c10.242393 9.617857 10.742022 25.855797 0.999257 36.09819-9.617857 10.242393-25.855797 10.742022-36.098189 0.999257l-163.628471-154.385336c-10.242393-9.617857-10.742022-25.855797-0.999258-36.098189 5.121196-5.371011 11.866187-7.994063 18.611177-7.994063z m948.420596 0c-6.495176 0-12.865445 2.498145-17.487012 6.994805l-163.628471 154.385336c-10.242393 9.617857-10.742022 25.855797-0.999258 36.09819 9.617857 10.242393 25.855797 10.742022 36.09819 0.999257l163.628471-154.385336c10.242393-9.617857 10.742022-25.855797 0.999258-36.098189-5.121196-5.371011-11.866187-7.994063-18.611178-7.994063zM622.81729 852.396847c-270.299245 0-489.511434-219.212188-489.511434-489.511434 0-270.424153 219.212188-489.511434 489.511434-489.511433 112.2916 0 218.712559 37.971798 304.773641 106.420959 10.3673 8.11897 11.991094 23.232745 3.747217 33.475138-8.243877 10.3673-23.232745 11.991094-33.600045 3.747217-77.56739-61.829079-173.621049-96.05366-275.04572-96.05366-243.94382 0-441.796872 197.853052-441.796872 441.796872 0 243.94382 197.728145 441.671965 441.796872 441.671965 244.068727 0 441.796872-197.853052 441.796872-441.671965 0-83.687844-23.232745-163.878286-66.575554-233.326705-6.994805-11.116743-3.497402-25.980704 7.619341-32.850602 11.241651-6.994805 25.855797-3.497402 32.850602 7.619341 47.964376 76.942854 73.820173 165.876801 73.820172 258.557966 0.124907 270.424153-218.962374 489.636341-489.386526 489.636341z m0 0M924.967879 386.49288H639.305044V670.157199c0 0.499629 0 0.874351-0.124907 1.373979 0 0.499629 0.124907 0.999258 0.124907 1.37398 0 14.489239-11.616372 26.230518-25.980704 26.230518s-25.980704-11.74128-25.980703-26.230518c0-0.499629 0-0.874351 0.124907-1.37398 0-0.499629-0.124907-0.874351-0.124907-1.373979v-283.414505c-14.489239 0-26.230518-11.616372-26.230519-25.855796 0-12.990352 9.492949-23.732374 21.983673-25.73089 1.37398-0.499629 2.747959-0.624536 4.121938-0.624536h0.124908v-0.124907c0-0.624536 0.124907-1.249072 0.124907-1.748701 0.999258-13.614888 12.240909-24.35691 25.855796-24.35691 14.364331 0 25.980704 11.74128 25.980704 26.230518h285.537928c14.489239 0 26.230518 11.616372 26.355425 25.855797 0 14.489239-11.74128 26.105611-26.230518 26.105611z m0 0"  horiz-adv-x="1640" />

    
    <glyph glyph-name="qiye" unicode="&#58909;" d="M564.7-64H90.4C75.8-64 64-52.2 64-37.6V656.8c0 11.5 7.5 21.7 18.5 25.1L556.8 830.8c8 2.5 16.7 1.1 23.5-3.9 6.8-5 10.8-12.9 10.8-21.2v-843.3c0-14.6-11.8-26.4-26.4-26.4z m-448 52.7h421.6v781L116.7 637.5v-648.8zM933.6-64H564.7c-14.6 0-26.4 11.8-26.4 26.4V673.9c0 8.7 4.3 16.9 11.5 21.8 7.2 4.9 16.4 6 24.5 2.7l368.9-146c10-4 16.7-13.7 16.7-24.5v-565.6c0.1-14.5-11.7-26.3-26.3-26.3z m-342.5 52.7h316.2V510L591.1 635.1v-646.4zM432.9 199.5H222.1c-14.6 0-26.4 11.8-26.4 26.4s11.8 26.4 26.4 26.4h210.8c14.6 0 26.4-11.8 26.4-26.4s-11.8-26.4-26.4-26.4zM432.9 384H222.1c-14.6 0-26.4 11.8-26.4 26.4 0 14.6 11.8 26.4 26.4 26.4h210.8c14.6 0 26.4-11.8 26.4-26.4 0-14.6-11.8-26.4-26.4-26.4zM801.9 384H696.5c-14.6 0-26.4 11.8-26.4 26.4 0 14.6 11.8 26.4 26.4 26.4h105.4c14.6 0 26.4-11.8 26.4-26.4-0.1-14.6-11.9-26.4-26.4-26.4zM801.9 199.5H696.5c-14.6 0-26.4 11.8-26.4 26.4s11.8 26.4 26.4 26.4h105.4c14.6 0 26.4-11.8 26.4-26.4s-11.9-26.4-26.4-26.4z"  horiz-adv-x="1024" />

    
    <glyph glyph-name="xiaomi" unicode="&#59579;" d="M793.645 188.689V689.803A206.153 206.153 0 0 1 587.515 895.978H8.09A8.045 8.045 0 0 1 0 887.955v-699.266a8.023 8.023 0 0 1 8.09-8.001h154.72a8.068 8.068 0 0 1 8.133 8V737.59a8.045 8.045 0 0 0 8.067 8.068h332.846A113.166 113.166 0 0 0 625.023 632.49v-443.802a8.068 8.068 0 0 1 8.067-8.046H785.6a8.045 8.045 0 0 1 8.067 8.002z m-312.556 0a8.045 8.045 0 0 0-8.045-8.068h-154.72a8.068 8.068 0 0 0-8.09 8.068V609.327a8.09 8.09 0 0 0 8.09 8.067h154.72a8.045 8.045 0 0 0 8.045-8.067v-420.638m618.878 0a8.068 8.068 0 0 0-8.09-8.068H937.159a8.09 8.09 0 0 0-8.112 8.068V887.889a8.09 8.09 0 0 0 8.112 8.089h154.72a8.068 8.068 0 0 0 8.09-8.09v-699.2"  horiz-adv-x="2053" />

    
    <glyph glyph-name="zhuye" unicode="&#59430;" d="M1011.464 382.97L549.135 845.296c-20.428 20.425-53.847 20.421-74.272 0L12.535 382.97c-15.379-15.383-15.379-40.324 0-55.703 15.383-15.379 40.324-15.379 55.703 0l425.195 425.192c10.209 10.209 26.922 10.212 37.134 0l425.195-425.192c15.379-15.379 40.32-15.379 55.703 0 15.382 15.383 15.379 40.321-0.001 55.703zM553.075 622.296c-20.425 20.425-53.847 20.425-74.272 0L143.352 286.844c-7.69-7.69-11.536-17.774-11.536-27.851V-40.097c0-28.884 23.633-52.517 52.517-52.517H442.416V123.97c0 14.443 11.815 26.258 26.258 26.258h94.529c14.443 0 26.258-11.815 26.258-26.258v-216.583H847.544c28.884 0 52.517 23.633 52.517 52.517V258.993c0 10.078-3.843 20.162-11.536 27.851l-335.45 335.452z m268.212-399.809V12.42c0-14.44-11.815-26.258-26.258-26.258H668.237V176.496c0 28.884-23.633 52.517-52.517 52.517H416.157c-28.884 0-52.517-23.633-52.517-52.517v-190.335H236.849c-14.443 0-26.258 11.818-26.258 26.258V242.678l286.781 286.781c10.212 10.212 26.922 10.212 37.134 0l286.781-286.781v-20.191z"  horiz-adv-x="1024" />

    
    <glyph glyph-name="right" unicode="&#58961;" d="M368.73282682 378.99950347000004l371.72157423 371.72793594c15.62183598 15.61165722 15.62183598 40.95165438 1e-8 56.56458395-15.61165722 15.62183598-40.95165438 15.62183598-56.56458396 0l-400.00831942-400.01086409c-15.62565301-15.61165722-15.62565301-40.95165438 0-56.56458395l400.00959177-400.00959177c7.8083733-7.81219032 18.04565073-11.71955783 28.2816558-11.71955783s20.47455485 3.9073675 28.2816558 11.71955783c15.62565301 15.61165722 15.62565301 40.95165438 0 56.56458395l-371.72411892 371.7292083z"  horiz-adv-x="1024" />

    
    <glyph glyph-name="youjiantou" unicode="&#58880;" d="M501.453125 834c-242.71549805 0-439.453125-196.73771484-439.453125-439.453125s196.73771484-439.453125 439.453125-439.453125 439.453125 196.73771484 439.453125 439.453125-196.73771484 439.453125-439.453125 439.453125zM501.453125 37.491210939999974c-197.20458984 0-357.05566406 159.85107422-357.05566406 357.05566406s159.85107422 357.05566406 357.05566406 357.05566406 357.05566406-159.85107422 357.05566406-357.05566406-159.85107422-357.05566406-357.05566406-357.05566406zM760.01635742 433.38354492l-219.7265625 219.7265625c-21.45084961 21.45084961-56.22257813 21.45084961-77.67333984 0s-21.45084961-56.22257813 0-77.67333984l125.95825195-125.95825195h-306.84814453c-30.34977539 0-54.93164063-24.58195312-54.93164063-54.93164063s24.58195312-54.93164063 54.93164063-54.93164062h306.84814453l-125.95825195-125.95825196c-21.45084961-21.45084961-21.45084961-56.22257813 0-77.70084961 10.73917969-10.71166992 24.77416992-16.0949707 38.83666992-16.0949707s28.125 5.35587891 38.83666992 16.0949707l219.7265625 219.7265625c21.45084961 21.45084961 21.45084961 56.22257813 0 77.67333985z"  horiz-adv-x="1000" />

    
    <glyph glyph-name="shouji" unicode="&#59001;" d="M742.06130094 828.54244781L316.33781656 828.54244781c0 0-61.13517094 0.97375969-61.13517093-63.23087062l-0.31753032-762.919515c0 0-5.73671438-62.93450906 58.27739813-62.93450906l431.73539156 0c0 0 59.25115781-0.93142219 59.25115781 60.37309781L804.14906281 765.31157625C804.17023156 765.31157625 806.01190719 828.54244781 742.06130094 828.54244781L742.06130094 828.54244781zM467.88445438 797.84785031l122.22800437 0 0-30.6099225-122.22800437 0L467.88445438 797.84785031 467.88445438 797.84785031zM422.03307594 797.84785031c8.46747563 0 15.30496125-6.81631781 15.30496125-15.2837925 0-8.46747563-6.81631781-15.34729875-15.30496125-15.34729875-8.42513813 0-15.26262375 6.85865531-15.26262375 15.34729875C406.79162094 791.0315325 413.60793781 797.84785031 422.03307594 797.84785031L422.03307594 797.84785031zM529.04079406 0.8044096900000568c-16.91378156 0-30.567585 13.71730969-30.567585 30.65226 0 16.91378156 13.67497219 30.67342875 30.567585 30.67342875 16.87144406 0 30.567585-13.75964719 30.567585-30.67342875C559.60837906 14.521720309999978 545.91223813 0.8044096900000568 529.04079406 0.8044096900000568L529.04079406 0.8044096900000568zM744.24167562 123.45578812999997L313.79757406 123.45578812999997 313.79757406 736.58566688l430.44410156-1e-8L744.24167562 123.45578812999997 744.24167562 123.45578812999997zM744.24167562 123.45578812999997"  horiz-adv-x="1024" />

    
    <glyph glyph-name="weixin" unicode="&#58908;" d="M482.336 246.91200000000003c0-154.512 147.24-279.504 328.608-279.504 49.968 0 97.056 9.36 139.392 26.208L1058.48-66l-30.24 103.068c68.292 51.408 111.384 126.108 111.384 209.88 0 154.152-147.24 279.144-328.68 279.144-181.404 0-328.608-124.992-328.608-279.18z m399.744 109.584c0 24.084 19.8 43.452 44.172 43.452 24.048 0 43.812-19.368 43.812-43.452 0-23.724-19.764-43.164-43.812-43.164-24.408 0-44.172 19.44-44.172 43.164z m-237.096 0c0 24.084 19.728 43.452 43.812 43.452 24.48 0 44.208-19.368 44.208-43.452 0-23.724-19.8-43.164-44.208-43.164-24.084 0-43.812 19.44-43.812 43.164zM62 503.124c0-103.86 56.736-196.2 145.08-256.536L170.504 120.48000000000002l108.468 59.616 19.8 19.8c47.052-16.92 98.784-26.244 153-26.244h13.68a263.124 263.124 0 0 0-10.512 73.296c0 168.84 159.552 305.748 356.04 305.748 8.64 0 17.568 0 26.28-0.72-28.08 158.796-190.08 280.296-385.488 280.296C236.564 832.2 62 684.888 62 503.124z m487.836 109.548c0 25.848 21.564 46.692 47.736 46.692 26.28 0 47.484-20.844 47.484-46.692 0-25.524-21.204-46.692-47.484-46.692-26.208 0-47.736 21.168-47.736 46.692z m-298.224 0c0 25.848 21.24 46.692 47.484 46.692 26.208 0 47.448-20.844 47.448-46.692 0-25.524-21.24-46.692-47.448-46.692a47.268 47.268 0 0 0-47.484 46.692z"  horiz-adv-x="1228" />

    
    <glyph glyph-name="kefu" unicode="&#58950;" d="M57.2576 449.4144v-186.5472c0-45.864 37.176-83.04 83.0352-83.04 45.8592 0 83.04 37.176 83.04 83.04V449.4192c0 33.4128-19.7376 62.208-48.1824 75.384 49.2 137.064 180.2928 235.0992 334.2912 235.0992 155.2704 0 287.2608-99.6672 335.4912-238.512-24.864-14.3472-41.6016-41.2032-41.6016-71.976v-186.5472c0-32.2992 18.4416-60.2928 45.3744-74.0208-19.032-76.4448-112.4496-138.0192-229.9536-148.9776-11.0016 19.2336-42.1152 33.1056-78.792 33.1056-45.864 0-83.0448-21.6912-83.0448-48.4416 0-26.7552 37.1808-48.4416 83.0448-48.4416 35.8272 0 66.3552 13.2336 78.0048 31.7808 139.608 11.1504 251.6736 82.6656 276.8784 172.392 41.88 4.2432 74.5632 39.6096 74.5632 82.608V449.4144c0 41.3328-30.2016 75.6096-69.744 81.9744-53.3376 164.568-207.8832 283.5648-390.2256 283.5648-183 0-337.9968-119.8608-390.792-285.3552-35.3568-9.528-61.3824-41.8128-61.3872-80.184z"  horiz-adv-x="1024" />

    
    <glyph glyph-name="renwu" unicode="&#58893;" d="M852.663125 123.18843749999996h0.1715625a367.8853125 367.8853125 0 0 1-164.023125 307.64625 251.28 251.28 0 0 1 49.096875 149.8284375c0 137.55375-109.2684375 249.0515625-244.08 249.0515625-134.743125 0-244.0453125-111.496875-244.0453125-249.0515625 0-56.2284375 18.27375-108.1378125 49.096875-149.8284375A367.8853125 367.8853125 0 0 1 134.856875 123.1875h0.1378125v-116.5715625l-0.069375-1.44c0-17.4853125 13.8515625-31.576875 30.96-31.576875a31.2684375 31.2684375 0 0 1 30.92625 31.543125l-0.0684375 1.47375V132.65156249999995a304.216875 304.216875 0 0 0 146.43375 252.0684375 239.9653125 239.9653125 0 0 1 150.6515625-53.109375 239.9653125 239.9653125 0 0 1 150.6515625 53.0746875 304.183125 304.183125 0 0 0 146.4684375-251.930625v-126.1715625c-0.03375-0.44625-0.103125-0.92625-0.103125-1.40625 0-17.4853125 13.8515625-31.576875 30.96-31.576875a31.2684375 31.2684375 0 0 1 30.92625 31.543125l-0.0684375 1.47375V123.18843749999996zM493.8284375 399.6c-97.9884375 0-177.4284375 81.0515625-177.4284375 181.063125s79.44 181.0621875 177.4284375 181.0621875 177.463125-81.050625 177.463125-181.0621875-79.4746875-181.0284375-177.463125-181.0284375z"  horiz-adv-x="1024" />

    
    <glyph glyph-name="fangdajing" unicode="&#58951;" d="M189.28481005 168.69782220000002c35.28433639-35.28433639 76.38214953-62.99039059 122.15257671-82.34973907 47.40466487-20.0507156 97.74068335-30.21680833 149.60926786-30.21680833s102.20353276 10.16716297 149.60819764 30.21680833c26.80599269 11.33799204 51.99594161 25.56131792 75.3675737 42.47198548l163.40343242-163.5489834c6.97895471-6.98537607 16.12833113-10.47859923 25.27877782-10.4785992 9.13974439 0 18.280559 3.48466133 25.25737323 10.45612444 13.96112009 13.94827737 13.97182238 36.57396074 0.02247478 50.53615106L739.9105301 175.99998564999999c31.91204896 33.61264075 57.2079504 72.20076998 75.24770818 114.85041327 20.04964536 47.40466487 30.21680833 97.74068335 30.21680833 149.60926787s-10.16716297 102.20460299-30.21680833 149.60926784c-19.35934852 45.76935699-47.06647293 86.86717013-82.34973905 122.15257673-35.28540662 35.28433639-76.38321977 62.99146079-122.15257675 82.35080931-47.40573508 20.0507156-97.74068335 30.21680833-149.60926786 30.21680832s-102.20460299-10.16716297-149.60926786-30.21680832c-45.7704272-19.35934852-86.86824036-47.06647293-122.15257671-82.35080931s-62.99039059-76.38321977-82.34973908-122.15257673c-20.04964536-47.40466487-30.21680833-97.74068335-30.21680831-149.60926784s10.16716297-102.20460299 30.21680831-149.60926786C126.29334927 245.08104193999998 154.00047368 203.98215857000002 189.28481005 168.69782220000002zM239.82096111 661.68536032c59.09155113 59.09155113 137.65696512 91.63503443 221.22569351 91.63503442 83.56765817 0 162.13414238-32.5434833 221.22569352-91.63503442s91.63396419-137.65696512 91.63396424-221.22569353S741.36282907 278.32552439000006 682.27234814 219.23397325999997c-59.09155113-59.09155113-137.65803536-91.63503443-221.22569352-91.63503443-83.5687284 0-162.13414238 32.54241307-221.22569351 91.6339642s-91.63396419 137.65803536-91.6339642 221.22569353S180.72940997 602.59380918 239.82096111 661.68536032z"  horiz-adv-x="1024" />

    
    <glyph glyph-name="arrow-right" unicode="&#58881;" d="M648.65590992 384.29855289l-354.56796444-354.57403259c-14.90094458-14.89123555-14.90094459-39.06188325 1e-8-53.95433245 14.89123555-14.90094458 39.06188325-14.90094459 53.95433243 0l381.54937837 381.55180563c14.90458546 14.89123555 14.90458548 39.06188325 1e-8 53.95433244l-381.550592 381.55059201c-7.44804503 7.45168592-17.21290903 11.17874252-26.97655941 11.17874252s-19.529728-3.72705659-26.97655941-11.17874253c-14.90458546-14.89123555-14.90458548-39.06188325 0-53.95433244l354.5703917-354.57524623z"  horiz-adv-x="1024" />

    
    <glyph glyph-name="icon-test" unicode="&#58894;" d="M205.66138994 100.08106231L74.24746455 125.98984394000001l51.02330889 29.83983926C-2.20204141 370.21806621999997 69.00940654 646.05560508 284.33279815 771.93991201c144.10188984 84.24124278 316.18365557 80.01862383 452.49380859 3.69981826l-34.80644268-20.34900087C578.29743565 817.88602471 426.42391748 818.78081719 298.25738633 743.8997124 98.66827549 627.18452109 32.61445508 371.45468994 150.79750859 172.70005048999997a420.49239083 420.49239083 0 0 1 54.86388135-72.61898819z m613.17450352 567.89194482a420.49239083 420.49239083 0 0 0 54.86388135-72.61898731c118.1830544-198.77474795 52.15939453-454.50457911-147.45987686-571.21977041-128.14642354-74.91126621-280.0400502-74.00641992-403.76277774-11.38096318l-34.79638886-20.39926992c136.30009922-76.28864414 308.40197256-80.55147832 452.49380859 3.68976445 215.32339161 125.88430606 286.53483955 401.73189961 159.0519709 616.11022881l51.00320127 29.8901083zM438.07633349 607.20751377v-437.13151963h-109.08431542v234.3553374q0 50.76190898-2.4229793 61.02689414t-13.37162607 15.51309698q-10.92853916 5.26821943-48.73102999 5.26821943h-10.79783964v50.96298603q79.10372373 17.03122911 120.14355586 70.00498565zM718.60902295 607.20751377v-69.93460898H583.3344166v-74.24771221q25.37592715 29.97053877 65.35005117 29.97053877 45.09153545 0 68.17518457-25.24522676t23.12386436-97.06996142v-62.33389453q0-46.44880576-4.45385742-68.17518458a95.14967432 95.14967432 0 0 0-19.03194581-40.21541542q-14.59819599-18.58957646-40.68794706-28.4021376t-63.58057295-9.85277725q-42.11559492 0-74.25776602 14.71884258t-45.62438906 43.87501845q-13.5123794 29.15617676-13.50232647 90.1830709v23.7069879h109.08431631v-27.27610576q0-42.39710244 3.01615576-60.20247833t20.46964746-17.77521357q8.10340664 0 13.07001007 5.13751904c3.32782558 3.40825693 5.12746523 7.10807519 5.39891982 11.05923955s0.58312354 21.11309385 0.9450624 51.56621719v86.68432969q0 24.55151133-5.13751992 33.47933378t-17.0010668 8.90771485a18.31812187 18.31812187 0 0 1-12.69801826-4.59461162 21.11309385 21.11309385 0 0 1-6.61543594-9.85277725q-1.4779169-5.26821943-1.47791601-24.43086474H479.93052852l4.58455693 220.32015732z"  horiz-adv-x="1024" />

    
    <glyph glyph-name="arrow-right-copy-copy" unicode="&#58882;" d="M271.8488889 753.4333498l60.03733333 62.14506665 420.26239999-418.15573332-420.26239999-418.15573334-60.03733333 62.1450667 353.90506666 356.0117333z"  horiz-adv-x="1024" />

    
    <glyph glyph-name="banshou" unicode="&#58883;" d="M914.388125 138.5334375a30.3590625 30.3590625 0 0 1-8.3625 15.665625L650.538125 408.778125c10.3565625 26.33625 16.96875 54.553125 19.185 83.9971875 0.4640625 2.116875 0.7171875 4.3134375 0.7171875 6.57l-0.1921875 2.02875c0.2025 4.4409375 0.3103125 8.90625 0.3103125 13.39875 0 160.0546875-129.755625 289.80375-289.8121875 289.80375-41.2734375 0-80.521875-8.64375-116.056875-24.196875a30.3590625 30.3590625 0 0 1-16.6846875-7.9490625 289.035 289.035 0 0 1-10.10625-5.46375l3.4903125-3.49125c-5.5171875-11.3671875-3.5634375-25.4465625 5.878125-34.8890625L384.03125 590.971875l-78.58875-79.1990625-137.071875 137.9175c-9.9065625 9.91875-24.946875 11.5753125-36.586875 4.98375l-3.1996875 2.9953125a288.4828125 288.4828125 0 0 1-5.7928125-10.73625 30.3 30.3 0 0 1-5.6484375-11.64c-16.809375-36.70125-26.19375-77.510625-26.19375-120.519375 0-160.0575 129.740625-289.8046875 289.7971875-289.8046875 36.65625 0 71.716875 6.8175 103.9978125 19.2375L718.240625 11.540624999999977a117.8971875 117.8971875 0 0 1 21.04125-20.96625l1.56375-1.558125a30.3375 30.3375 0 0 1 11.6175-7.273125c17.195625-9.8953125 37.1353125-15.5559375 58.39875-15.5559375 64.75875 0 117.2578125 52.5 117.2578125 117.256875 0 19.9125-4.9715625 38.6625-13.730625 55.0875zM810.921875 26.399999999999977c-10.704375 0-20.716875 2.9559375-29.274375 8.090625l-19.54125 19.471875a57.1753125 57.1753125 0 0 0-2.1375 3.88125l-61.0078125 60.6684375c-0.1303125-0.4125-0.2690625-0.8221875-0.39375-1.2375l-156.965625 156.4096875c0.0909375 0.0609375 0.1828125 0.1190625 0.27375 0.18l-44.1384375 44.1375c-34.44-20.574375-74.70375-32.409375-117.7359375-32.409375-126.984375 0-229.940625 102.9478125-229.940625 229.9321875 0 20.20875 2.611875 39.80625 7.5103125 58.4784375l119.758125-120.5034375c0.823125-0.823125 1.6846875-1.5834375 2.574375-2.2921875a30.6 30.6 0 0 1 3.7425-4.545c11.9175-11.9175 31.2234375-11.9175 43.141875 0L448.3803125 569.19375c11.9175 11.9175 11.9175 31.231875 0 43.149375a31.1221875 31.1221875 0 0 1-2.3475 2.11875 30.64125 30.64125 0 0 1-3.52125 4.228125L323.485625 738.4471875c18.0815625 4.5740625 37.0125 7.0153125 56.51625 7.0153125 126.984375 0 229.92375-102.94875 229.92375-229.9396875 0-2.3578125-0.046875-4.7034375-0.118125-7.044375a30.6684375 30.6684375 0 0 1-0.65625-6.30375l0.230625-2.4234375c-1.6603125-24.4659375-7.14375-47.88375-15.8625-69.6571875l3.8184375-2.626875a30.639375 30.639375 0 0 1-4.779375-3.9065625c-11.919375-11.9175-11.919375-31.2328125 0-43.1503125l145.7990625-145.2778125 0.255 0.27375 26.855625-27.2878125 12.2315625-12.1875-0.18-0.05625 62.5153125-63.5203125a57.3646875 57.3646875 0 0 0 4.3096875-2.829375l12.6065625-12.560625a56.709375 56.709375 0 0 0 10.9546875-33.5775c-0.001875-31.46625-25.520625-56.986875-56.9840625-56.986875z"  horiz-adv-x="1024" />

    
    <glyph glyph-name="zuojiantou2" unicode="&#58889;" d="M519.69042968 788.296875c227.54577942 0 411.98730469-184.44160766 411.98730469-411.98730468s-184.44160766-411.98730469-411.98730469-411.98730469-411.98730469 184.44160766-411.98730468 411.98730469 184.44160766 411.98730469 411.98730468 411.98730468zM519.69042968 41.56988525999998c184.87930298 0 334.73968506 149.86038208 334.73968506 334.73968506s-149.86038208 334.73968506-334.73968506 334.73968506-334.73968506-149.86038208-334.73968506-334.73968506 149.86038208-334.73968506 334.73968506-334.73968506zM277.28739929 412.71894836l205.99365235 205.99365235c20.11017151 20.11017151 52.708667 20.11017151 72.81875609 0s20.11017151-52.708667 1e-8-72.8187561l-118.08586121-118.08586121 287.6701355 0c28.45291443 0 51.49841309-23.04558105 51.49841309-51.49841309s-23.04558105-51.49841309-51.49841309-51.49841308l-287.6701355 0 118.08586121-118.08586121c20.11017151-20.11017151 20.11017151-52.708667 0-72.84454651-10.06798096-10.04219055-23.2257843-15.08903504-36.40937806-15.08903502s-26.3671875 5.02113648-36.40937804 15.08903501l-205.99365235 205.99365235c-20.11017151 20.11017151-20.11017151 52.708667 0 72.81875611z"  horiz-adv-x="1000" />

    
    <glyph glyph-name="personLocation" unicode="&#58884;" d="M512.09064336 552.6436708a93.35895381 93.35895381 0 1 0-66.36359356-27.55776358A93.35895381 93.35895381 0 0 0 512.09064336 552.6436708m0 56.24033379a150.16169092 150.16169092 0 1 1 106.29423106-43.86746074A149.03688428 149.03688428 0 0 1 512.09064336 608.88400459zM769.67137197 724.73909209a358.25092558 358.25092558 0 0 1-515.16145635 0 379.05984932 379.05984932 0 0 1 0-526.97192696L512.09064336-66l257.58072861 263.76716513a379.05984932 379.05984932 0 0 1 1e-8 526.97192696z m-38.80582998-489.85330693l-218.77489863-224.96133428-218.77489776 224.96133428a321.13230557 321.13230557 0 0 0 0 447.11065283 304.82260839 304.82260839 0 0 0 437.5497964 0 321.13230557 321.13230557 0 0 0 0-447.11065283z"  horiz-adv-x="1024" />

    
    <glyph glyph-name="prev" unicode="&#58885;" d="M360.84482421 384l365.93964845-365.91679687-31.81464844-31.83750001-397.75517578 397.75517579 397.75517578 397.75517579 31.81464844-31.83750001z"  horiz-adv-x="1024" />

    
    <glyph glyph-name="liwu" unicode="&#58886;" d="M854.23466797 641.51777344h-30.13066406c15.26132812 25.94267578 21.99199219 50.67333984 19.83955078 73.6040039-1.76132812 19.17421875-10.87822266 46.68222656-44.21777344 68.55644532-27.62578125 18.19599609-63.19511719 22.65644531-102.63867187 12.75644531-63.93955078-16.04355469-139.65644531-71.25644531-189.39111329-137.97421875C457.88222656 725.21777344 382.24355469 780.39111328 318.30400391 796.43554688c-39.52177734 9.93955078-75.0515625 5.43955078-102.71777344-12.75644532-33.29912109-21.91289063-42.41601563-49.34355469-44.21689453-68.55644531-2.11289063-22.93066406 4.53955078-47.66132812 19.87822265-73.56445313h-30.12978515a82.95644531 82.95644531 0 0 1-82.83955078-82.95732421v-106.7475586c0-36.15644531 23.86933594-68.08710937 58.34355468-78.80888672a81.97822266 81.97822266 0 0 1-5.00888671-27.93955078v-320.28222656c0-45.66533203 37.21289063-82.87822266 82.87822265-82.87822266h586.48710938a82.95644531 82.95644531 0 0 1 82.76132812 82.91689454V345.14355469c0 9.5484375-1.68310547 18.94042969-4.93066406 27.97910156a82.91777344 82.91777344 0 0 1 58.22578125 78.76933594V558.63955078a82.95644531 82.95644531 0 0 1-82.83867188 82.87822266zM800.94042969 1.0306640600000492H537.16044922V369.01289063h263.81777344a23.86933594 23.86933594 0 0 0 23.79199218-23.86933594v-320.28222656a23.86933594 23.86933594 0 0 0-23.83066406-23.87021485zM569.67822266 641.47822266c41.90888672 48.40400391 97.00488281 86.43955078 141.69111328 97.66933593 23.24355469 5.79199219 42.26132812 4.22666016 55.99511718-4.8515625 14.63554687-9.62666016 17.21777344-18.15644531 17.80488282-24.65332031 2.3484375-23.71289063-23.08710937-55.68222656-35.1-68.16445312H569.67822266z m308.34755859-82.87822266v-106.74755859c0-13.1484375-10.64355469-23.83066406-23.79111328-23.83066407h-317.07421875V582.4693359400001h317.07421875c13.1484375 0 23.79199219-10.68222656 23.79199219-23.86933594zM478.15332031 368.97421875V0.9902343700000529H214.49023437a23.86933594 23.86933594 0 0 0-23.86933593 23.83066407v320.28222656a23.86933594 23.86933594 0 0 0 23.86933594 23.87021484H478.15332031z m-247.97021484 340.70800781c0.58710937 6.49599609 3.20888672 15.02666016 17.76533203 24.65332031 13.69599609 9.07734375 32.67421875 10.72089844 56.03466797 4.8515625 44.45244141-11.15244141 99.47021484-49.18710938 141.49599609-97.70888671H265.24355469c-10.76132813 10.91777344-37.40888672 43.90400391-35.06132813 68.16533203zM137.24755859 558.63955078a23.86933594 23.86933594 0 0 0 23.87021485 23.86933594h317.03466797V428.05957031H161.11777344a23.86933594 23.86933594 0 0 0-23.87021485 23.87021485V558.6z"  horiz-adv-x="1024" />

    
    <glyph glyph-name="tian" unicode="&#58887;" d="M512-65.94375000000002c-248.11875 0-450 201.825-450 450C62 632.11699219 263.88125 833.94111328 512 833.94111328a445.5 445.5 0 0 0 201.14912109-47.41787109l-25.14375-50.34375A389.64287109 389.64287109 0 0 1 512 777.63574219c-217.06787109 0-393.75-176.625-393.75-393.6375 0-217.06787109 176.625-393.75 393.75-393.75s392.85 205.42587891 392.85 422.55c0 14.45625 0 14.45625-94.05 10.0125l104.79375 201.15s17.60625 2.30625 38.7-132.80625 7.70625-90.50625 7.70625-107.1c0-248.17412109-201.9375-449.99912109-450-449.9991211zM484.49287109 129.13125000000002l-49.89375 26.04375 172.575 331.3125v32.0625H392.75v56.25h270.67412109v-102.09375z"  horiz-adv-x="1028" />

    
    <glyph glyph-name="weibo" unicode="&#59456;" d="M512 314.70000000000005c-10.8 14.4-27 26.1-48.6 34.2-21.6 8.1-45.9 9.9-73.8 7.2-19.8-1.8-36.9-7.2-53.1-14.4-15.3-7.2-27.9-15.3-36.9-25.2-9-9-16.2-19.8-22.5-30.6-6.3-10.8-10.8-21.6-12.6-31.5-2.7-10.8-3.6-19.8-4.5-28.8-0.9-9-0.9-15.3-0.9-20.7l0.9-8.1v-4.5c0-1.8 0.9-6.3 1.8-12.6s3.6-11.7 5.4-17.1c2.7-5.4 6.3-10.8 11.7-17.1 5.4-6.3 11.7-11.7 18.9-15.3 45-22.5 86.4-28.8 125.1-20.7 38.7 9 70.2 28.8 93.6 60.3 9.9 11.7 16.2 26.1 18.9 44.1 2.7 17.1 2.7 35.1-1.8 53.1-2.7 16.2-10.8 33.3-21.6 47.7zM397.7 186.89999999999998c-4.5-7.2-10.8-13.5-18-18-7.2-5.4-15.3-8.1-24.3-9-4.5-0.9-8.1-0.9-11.7-0.9s-7.2 0.9-9.9 1.8c-2.7 0.9-6.3 2.7-9 3.6-2.7 1.8-5.4 3.6-7.2 6.3-1.8 2.7-3.6 5.4-5.4 7.2-1.8 2.7-2.7 5.4-4.5 9-0.9 3.6-1.8 6.3-1.8 9.9 0 8.1 1.8 15.3 6.3 23.4 4.5 7.2 9.9 13.5 17.1 18.9s15.3 8.1 24.3 9c6.3 0.9 11.7 0.9 18-0.9 5.4-0.9 10.8-2.7 14.4-5.4 4.5-2.7 7.2-5.4 10.8-9 2.7-3.6 5.4-7.2 6.3-10.8s1.8-9 1.8-13.5c-0.9-7.2-2.7-15.3-7.2-21.6z m48.6 49.5c-1.8-3.6-3.6-6.3-6.3-9.9-4.5-3.6-9-5.4-13.5-5.4s-8.1 2.7-9.9 7.2l-1.8 4.5c-1.8 2.7-1.8 4.5-1.8 5.4v4.5c0 2.7 0 4.5 0.9 5.4l1.8 4.5c0.9 1.8 1.8 2.7 2.7 3.6l2.7 4.5c5.4 4.5 9.9 6.3 14.4 5.4 4.5-0.9 8.1-3.6 9.9-9 1.8-2.7 2.7-6.3 2.7-9.9 0.9-3.6-0.9-7.2-1.8-10.8zM956.6 583.8c-4.5 18.9-10.8 36.9-19.8 54-9 16.2-18.9 30.6-30.6 42.3-11.7 11.7-24.3 22.5-38.7 31.5s-27 17.1-40.5 23.4c-13.5 5.4-27 9.9-40.5 13.5-29.7 7.2-69.3 5.4-118.8-4.5-0.9 0-0.9 0-1.8-0.9l-0.9-1.8-0.9-0.9c-7.2-1.8-13.5-6.3-18-13.5-4.5-6.3-7.2-14.4-7.2-21.6 0-10.8 3.6-19.8 9.9-27 6.3-7.2 14.4-10.8 24.3-10.8h2.7c0.9 0 1.8 0 4.5 0.9s4.5 0.9 7.2 1.8c2.7 0 5.4 0.9 9 1.8s5.4 1.8 8.1 3.6c2.7 0.9 7.2 1.8 13.5 1.8s15.3-0.9 25.2-1.8c9.9-0.9 20.7-3.6 32.4-8.1 11.7-4.5 23.4-9.9 35.1-16.2s23.4-15.3 35.1-27c11.7-11.7 22.5-24.3 30.6-39.6 17.1-41.4 20.7-81.9 9.9-121.5 0-0.9 0-1.8-0.9-1.8 0-0.9-0.9-2.7-1.8-5.4s-0.9-5.4-1.8-8.1c-0.9-2.7-1.8-5.4-1.8-9.9-0.9-3.6-0.9-7.2-0.9-9.9 0-6.3 1.8-11.7 5.4-16.2 3.6-4.5 7.2-7.2 12.6-9 5.4-1.8 10.8-2.7 18-2.7 18.9 0 29.7 11.7 33.3 36 8.1 27.9 12.6 54 13.5 79.2 0.9 27-0.9 49.5-5.4 68.4zM796.4 360.6c-11.7 10.8-23.4 18-34.2 23.4-10.8 4.5-19.8 8.1-27.9 9.9-9.9 1.8-17.1 5.4-19.8 9.9-2.7 4.5-3.6 8.1-1.8 11.7l2.7 5.4c0.9 0.9 1.8 1.8 1.8 3.6 0.9 1.8 1.8 4.5 4.5 9 1.8 4.5 3.6 9 4.5 13.5 0.9 4.5 1.8 9.9 2.7 17.1s0.9 12.6-0.9 18.9c-0.9 6.3-2.7 12.6-6.3 19.8-2.7 7.2-7.2 13.5-12.6 18.9-9.9 9.9-21.6 16.2-37.8 18.9-15.3 2.7-30.6 2.7-45.9 0.9-15.3-2.7-29.7-5.4-43.2-9.9-13.5-3.6-25.2-7.2-34.2-10.8l-13.5-6.3c-7.2-1.8-12.6-3.6-17.1-4.5s-8.1-0.9-9.9 0.9c-2.7 0.9-4.5 1.8-5.4 3.6s-1.8 3.6-1.8 7.2 0.9 7.2 0.9 9.9c0 2.7 0.9 7.2 2.7 13.5 1.8 6.3 2.7 10.8 2.7 14.4 0 8.1-0.9 16.2-1.8 23.4s-3.6 15.3-6.3 25.2c-3.6 9-8.1 16.2-14.4 22.5-6.3 5.4-14.4 9.9-24.3 13.5s-22.5 4.5-38.7 3.6c-15.3-1.8-33.3-5.4-53.1-12.6-24.3-8.1-47.7-20.7-72.9-37.8-24.3-16.2-45.9-34.2-63.9-51.3-18-18-34.2-35.1-49.5-52.2-15.3-17.1-27-30.6-35.1-41.4l-11.7-17.1C114.2 402 97.1 371.4 86.3 341.70000000000005S70.1 288.6 71 273.29999999999995v-22.5c4.5-34.2 14.4-63.9 30.6-90.9 16.2-27 35.1-48.6 57.6-64.8s48.6-30.6 78.3-42.3c29.7-11.7 58.5-19.8 86.4-25.2s56.7-9 87.3-10.8c50.4-4.5 102.6 0 157.5 11.7 54 12.6 104.4 33.3 151.2 63.9 46.8 30.6 80.1 66.6 99 108.9 11.7 24.3 18 47.7 18 69.3 0 21.6-3.6 39.6-10.8 53.1-8.1 14.4-18 26.1-29.7 36.9z m-191.7-234c-52.2-40.5-114.3-62.1-187.2-65.7-73.8-3.6-136.8 11.7-188.1 44.1S152 179.70000000000005 152 231c0 50.4 25.2 92.7 76.5 129.6 51.3 36 114.3 55.8 189 59.4s137.7-9 189-37.8c51.3-28.8 76.5-68.4 76.5-117.9 0-52.2-26.1-97.2-78.3-137.7zM782.9 463.2c4.5-4.5 10.8-7.2 18-7.2 4.5 0 8.1 0.9 11.7 2.7s6.3 4.5 8.1 8.1c1.8 2.7 3.6 6.3 4.5 9.9 0.9 0.9 0.9 1.8 0.9 2.7 8.1 79.2-19.8 124.2-83.7 135-18.9 3.6-36 3.6-52.2 0.9-4.5 0-9-0.9-12.6-3.6-3.6-2.7-6.3-5.4-9-9-2.7-3.6-3.6-7.2-3.6-11.7 0-7.2 2.7-12.6 7.2-18 4.5-4.5 10.8-7.2 18-7.2 54 12.6 83.7-4.5 87.3-52.2 1.8-11.7 0.9-22.5-1.8-33.3 0-6.3 1.8-11.7 7.2-17.1z"  horiz-adv-x="1024" />

    
    <glyph glyph-name="gouwuche" unicode="&#58926;" d="M305.31764727 143.80588271h691.83529365a33.14117636 33.14117636 0 0 1 30.91764726 30.78529366s47.43529453 263.96470547 69.08823545 445.76470634c6.22058818 50.29411729-17.49705908 74.96470547-63.9264709 74.96470547H277.49705908l-12.44117637 107.84117637A32.16176455 32.16176455 0 0 1 236.1764709 834H97.02058818a34.94117636 34.94117636 0 0 1 0-69.82941182h108.26470635l70.1470582-589.68529365a31.5 31.5 0 0 1 29.88529454-30.70588271zM1030.16176455 626.5235291c-18.66176455-145.85294092-49.5-340.99411729-61.86176455-413.73529365H335.22941182l-49.5 413.73529366h744.43235273zM339.33235273 73.97647089999998a68.8235291 68.8235291 0 1 1 69.08823545-68.82352998 68.92941182 68.92941182 0 0 1-69.03529365 68.82352997h-0.0529418z m623.77941182-1e-8a68.8235291 68.8235291 0 1 1 69.08823545-68.82352997 68.92941182 68.92941182 0 0 1-69.06176455 68.82352997z"  horiz-adv-x="1204" />

    


  </font>
</defs>
</svg>
